<svg id="Capa_1" data-name="Capa 1" xmlns="http://www.w3.org/2000/svg" viewBox="0 0 146 146"><defs><style>.cls-1{fill:#ea4893;}.cls-2{fill:#6ba0cb;}.cls-3{fill:#8f5e89;}</style></defs><title>Mesa de trabajo 1</title><g id="_Grupo_" data-name="&lt;Grupo&gt;"><rect id="_Rect치ngulo_" data-name="&lt;Rect치ngulo&gt;" class="cls-1" x="25.55" y="1.35" width="55.39" height="142.52" rx="27.7" ry="27.7" transform="translate(38.12 -16.15) rotate(26.58)"/><rect id="_Rect치ngulo_2" data-name="&lt;Rect치ngulo&gt;" class="cls-2" x="64.56" y="1.35" width="55.39" height="142.52" rx="27.7" ry="27.7" transform="translate(207.24 96.25) rotate(153.42)"/><path id="_Trazado_" data-name="&lt;Trazado&gt;" class="cls-3" d="M85.14,8.88h0a25.56,25.56,0,0,0-2.53-1.11l-.44-.16-.8-.28-.73-.23L80.12,7l-.9-.23-.37-.09-1-.2-.33-.06c-.32-.06-.65-.11-1-.15l-.37,0-.92-.1-.45,0L74,6l-.56,0h-1.4l-.56,0-.82,0-.45,0-.92.1-.37,0-1,.15-.33.06-1,.2-.38.09-.9.23-.52.15-.73.23-.8.28-.44.16a25.56,25.56,0,0,0-2.53,1.11h0A27.69,27.69,0,0,0,48,46L72.75,95.52,97.51,46A27.69,27.69,0,0,0,85.14,8.88Z"/></g></svg>